<svg xmlns="http://www.w3.org/2000/svg" viewBox="0 0 63.09 75.8"><defs><style>.cls-1{fill:#999;}</style></defs><title>header_cart</title><g id="レイヤー_2" data-name="レイヤー 2"><g id="ol"><path class="cls-1" d="M13,74.15a9.26,9.26,0,0,0,4.82-7.22H13.63v-2H18c.06-1,.09-1.6.08-2.77l2.22,0c0,1.12-.08,1.65-.17,2.74h5.78v2.59c0,1.71-.1,5.23-.66,6.63a2.81,2.81,0,0,1-2.93,1.55,16.77,16.77,0,0,1-2.42-.19l-.11-2.15a14.06,14.06,0,0,0,2.24.23c1.06,0,1.25-.32,1.39-.92A29.77,29.77,0,0,0,23.81,68V66.93H20c-.82,5.35-3.65,7.67-5.52,8.85Z"/><path class="cls-1" d="M43.12,67.88V70.1H29.39V67.88Z"/><path class="cls-1" d="M56.65,71.53A31.75,31.75,0,0,0,50.2,68.2v7.6H47.9V62.13h2.3V66a40.48,40.48,0,0,1,7.57,3.33Z"/><path class="cls-1" d="M22,42a6,6,0,1,0,6,6A6,6,0,0,0,22,42Zm0,8a2,2,0,1,1,2-2A2,2,0,0,1,22,50Z"/><path class="cls-1" d="M47.87,42a6,6,0,1,0,6,6A6,6,0,0,0,47.87,42Zm0,8a2,2,0,1,1,2-2A2,2,0,0,1,47.87,50Z"/><path class="cls-1" d="M52,37H22.73l-1.07-5H52.29L63.09,8H17a1.76,1.76,0,0,0-.46.06L14.81,0H2A2,2,0,0,0,2,4h9.58L19.5,41H52a2,2,0,0,0,0-4Zm4.91-25-7.2,16H20.8L17.38,12Z"/></g></g></svg>