<svg xmlns="http://www.w3.org/2000/svg" viewBox="0 0 116.13 38.23"><defs><style>.cls-1{fill:#e52e2e;}</style></defs><title>アセット 9</title><g id="レイヤー_2" data-name="レイヤー 2"><g id="ol"><path class="cls-1" d="M10.76,11.91a15.45,15.45,0,0,1-1.82-1v1H2.71v-1a15,15,0,0,1-1.92,1L0,10.4A11.67,11.67,0,0,0,5,7.18H6.56a11.49,11.49,0,0,0,5,3.22Zm-.43,1v5.33H1.22V12.94ZM8.78,14.31h-6v2.61h6Zm-.47-3.76A12.25,12.25,0,0,1,5.77,8.4a10.8,10.8,0,0,1-2.48,2.15Z"/><path class="cls-1" d="M17.55,9.21v1.23H12.22V9.21Zm-.37-1.75V8.63H12.61V7.46Zm0,3.52v1.19H12.61V11Zm0,1.8V14H12.61V12.78Zm0,1.81v3.73H12.61V14.59Zm-1.29,1.13h-2V17.1h2Zm3.85,2.8V12h-2.2V10.48h2.2V7.22h1.52v3.26h2.29V12H21.26v6.53Z"/><path class="cls-1" d="M25.92,9.5l.9-9.25h8.81v3H29.72l-.32,3.9a3.71,3.71,0,0,1,2.11-.69A4.09,4.09,0,0,1,35,8.09a7.32,7.32,0,0,1,1.22,4.52A6.55,6.55,0,0,1,34.75,17a4.9,4.9,0,0,1-3.88,1.67A5.43,5.43,0,0,1,28.21,18a5.08,5.08,0,0,1-1.93-1.89,5.5,5.5,0,0,1-.72-2.75h3.5a3.31,3.31,0,0,0,.56,1.76,1.52,1.52,0,0,0,2.58-.22,5.34,5.34,0,0,0,.47-2.52A4.06,4.06,0,0,0,32.1,10a1.83,1.83,0,0,0-1.59-.8A1.86,1.86,0,0,0,29,9.91l-.23.32Z"/><path class="cls-1" d="M38.05,19.81l-1.42-.74.36-.66a4.79,4.79,0,0,0,.62-2.23V14.07h2.31V16a5.49,5.49,0,0,1-1.86,3.86Z"/><path class="cls-1" d="M41.94,9.5l.9-9.25h8.81v3H45.73l-.32,3.9a3.73,3.73,0,0,1,2.11-.69A4.09,4.09,0,0,1,51,8.09a7.32,7.32,0,0,1,1.22,4.52A6.5,6.5,0,0,1,50.76,17a4.9,4.9,0,0,1-3.88,1.67A5.45,5.45,0,0,1,44.22,18a5.15,5.15,0,0,1-1.93-1.89,5.5,5.5,0,0,1-.72-2.75h3.5a3.39,3.39,0,0,0,.56,1.76,1.52,1.52,0,0,0,2.58-.22,5.21,5.21,0,0,0,.48-2.52A4.06,4.06,0,0,0,48.12,10a1.83,1.83,0,0,0-1.6-.8A1.87,1.87,0,0,0,45,9.91l-.22.32Z"/><path class="cls-1" d="M65,10.93a10.21,10.21,0,0,1-1.36,5.77,4.84,4.84,0,0,1-7.79.06,9.87,9.87,0,0,1-1.42-5.57V7.75A10.17,10.17,0,0,1,55.76,2a4.85,4.85,0,0,1,7.83,0A9.89,9.89,0,0,1,65,7.61ZM61.43,7.24A9.34,9.34,0,0,0,61,4a1.41,1.41,0,0,0-1.32-1.07c-1.13,0-1.71,1.31-1.75,3.94v4.53a9.31,9.31,0,0,0,.43,3.28,1.42,1.42,0,0,0,1.34,1.07,1.36,1.36,0,0,0,1.28-1,8.81,8.81,0,0,0,.45-3.08Z"/><path class="cls-1" d="M77.92,10.93a10.2,10.2,0,0,1-1.37,5.77,4.84,4.84,0,0,1-7.79.06,9.87,9.87,0,0,1-1.42-5.57V7.75A10.17,10.17,0,0,1,68.7,2a4.85,4.85,0,0,1,7.83,0,10,10,0,0,1,1.39,5.63ZM74.37,7.24A9.34,9.34,0,0,0,73.94,4a1.42,1.42,0,0,0-1.32-1.07c-1.13,0-1.71,1.31-1.75,3.94v4.53a9.31,9.31,0,0,0,.43,3.28,1.42,1.42,0,0,0,1.34,1.07,1.37,1.37,0,0,0,1.28-1,8.81,8.81,0,0,0,.45-3.08Z"/><path class="cls-1" d="M89.2,14H81.89V18.5H80.36V7.55H90.72v9.79a1.09,1.09,0,0,1-1.15,1.16H87.3L87,17h1.79c.31,0,.37-.15.37-.35Zm-7.31-1.38h2.89V9H81.89Zm4.39,0H89.2V9H86.28Z"/><path class="cls-1" d="M93.9,18.16a6.08,6.08,0,0,1-1.41-3.79,6.08,6.08,0,0,1,1.41-3.79h.89a6,6,0,0,0,0,7.58Z"/><path class="cls-1" d="M98.65,15l-.44.87a4,4,0,0,1-.57-.91v3.15H96.7v-3a8.71,8.71,0,0,1-.92,1.58l-.37-1.17a7.6,7.6,0,0,0,1.21-2.06H95.54v-.92H96.7v-.82l-1,.11L95.52,11a12.56,12.56,0,0,0,2.61-.43l.36.88a7.64,7.64,0,0,1-.85.2v1h.76v.92h-.76v.08a6.37,6.37,0,0,0,1,1.36V12.26h.64a6.05,6.05,0,0,0-.65-1.35l1-.34A5.92,5.92,0,0,1,100.3,12l-.7.23h1.52a13.93,13.93,0,0,0,.83-1.72l1,.34a10.51,10.51,0,0,1-.72,1.38h.62v3h-1.1V17c0,.14.07.18.2.18h.14a.17.17,0,0,0,.18-.12,5.11,5.11,0,0,0,.08-.95l.88.22c-.08,1.4-.12,1.77-.79,1.77h-1c-.49,0-.69-.16-.69-.67V15.22h-.54a3.2,3.2,0,0,1-1.83,3l-.57-.85a2.21,2.21,0,0,0,1.46-2.1h-.65Zm1-1.84v1.16h2.28V13.17Z"/><path class="cls-1" d="M104.3,13.63h1.84V16c.07.49.51,1,1.53,1h4.24l-.19,1h-3.91a2.36,2.36,0,0,1-2.06-.91,7.64,7.64,0,0,1-1.12,1.09L104.19,17a4.3,4.3,0,0,0,1-.65V14.56h-.88Zm.73-2.94A5.76,5.76,0,0,1,106.5,12l-.69.76a6.91,6.91,0,0,0-1.43-1.36Zm1.31,5.07a5.88,5.88,0,0,0,2.6-3.94H107.2v-1h2.71a6.09,6.09,0,0,0,2,4.93l-.67.89a6.12,6.12,0,0,1-1.93-3.32A6.84,6.84,0,0,1,107,16.65Z"/><path class="cls-1" d="M112.62,18.16a6,6,0,0,0,0-7.58h.88a6.08,6.08,0,0,1,1.41,3.79,6.08,6.08,0,0,1-1.41,3.79Z"/><path class="cls-1" d="M.06,34.75c.42-.11.66-.17,1.49-.44l-.08-11,2.08,0,.05,10.3c2.71-1,3-1.13,4-1.58l.37,1.79a76.34,76.34,0,0,1-7.49,3Zm6.47-11A22.36,22.36,0,0,1,10,27.9l-1.8,1.36A24.1,24.1,0,0,0,5,25ZM14,26.91a14,14,0,0,1-1.33,6.21,24.08,24.08,0,0,1,2.77,3.12l-1.59,1.81a18.62,18.62,0,0,0-2.32-3.23,11,11,0,0,1-5.2,3.28l-1.14-2c6.47-1.62,6.61-6.68,6.66-9.48l.05-3.34h2.16Z"/><path class="cls-1" d="M25.46,23v4.51h5.86v2.06H25.46v5.93h6.81v2.05h-15V35.51h6.13V23Z"/><path class="cls-1" d="M47.45,26.48c-.62,0-1.07-.05-1.44-.05a5.86,5.86,0,0,0-1.79.21c-2.21.66-5.06,3.07-5.06,5.55,0,1.59,1,2.76,5.89,2.76.48,0,.75,0,1,0l-.33,2.3c-3-.06-8.81-.14-8.81-4.91,0-2.85,2.48-4.79,3.91-5.7-1.62.11-5.4.4-6.84.57l-.14-2.3c1.06,0,1.6,0,3.31-.15,3.89-.25,7-.33,10.2-.4Zm-3.28,1.71a14.51,14.51,0,0,1,1.79,3L44.65,32a13.05,13.05,0,0,0-1.71-3.06Zm2.26-1a14.85,14.85,0,0,1,1.82,3l-1.31.74a13.24,13.24,0,0,0-1.74-3Z"/><path class="cls-1" d="M50.19,29h3.44v4.74c.52,1.94,2.5,1.94,3.43,1.94h8.35l-.33,1.92H56.93a4.35,4.35,0,0,1-3.78-1.74,9.88,9.88,0,0,1-2.32,2.17l-.89-2.14a7.56,7.56,0,0,0,1.79-1.3v-3.7H50.19Zm1.52-5.87a12.84,12.84,0,0,1,2.53,2.77l-1.53,1.33a15.92,15.92,0,0,0-2.34-2.79Zm7,5.57V27H54.83V25.12h1.73a10.83,10.83,0,0,0-.86-1.78L57.63,23a10.71,10.71,0,0,1,.95,2.16H60.8A9.48,9.48,0,0,0,61.73,23l2,.35a15,15,0,0,1-.87,1.81h1.88V27H60.64v1.74h4.5v1.87H61.27a7.12,7.12,0,0,0,4,3.08L64.2,35.49a8,8,0,0,1-4.39-4.14,8,8,0,0,1-4,4.14L54.5,33.67a6.47,6.47,0,0,0,3.74-3.08H54.39V28.72Z"/><path class="cls-1" d="M73.49,33l-.64,1.2a12.8,12.8,0,0,1-1.06-1.68v5.57H70V32.61a12.69,12.69,0,0,1-2.2,3.22l-.71-2.29a12.49,12.49,0,0,0,2.69-3.71H67.31V28H70V23h1.83v5h2.43v1.81H72a10.18,10.18,0,0,0,1.86,2.54l-.3.56,5.38-1.12V23h2v8.4l1.23-.25.19,1.92-1.42.3v4.71h-2V33.79l-5.14,1.06Zm-4.82-9.25a13.85,13.85,0,0,1,.75,3.17l-1.52.5a10.92,10.92,0,0,0-.69-3.3Zm6,.31a17,17,0,0,1-1,3.37l-1.44-.54A13.1,13.1,0,0,0,73,23.69Zm.85,3.6a12.83,12.83,0,0,1,2.74,2.21l-1.31,1.47a10,10,0,0,0-2.6-2.26Zm.47-4a11.38,11.38,0,0,1,2.75,2.23l-1.3,1.47A12.31,12.31,0,0,0,74.8,25Z"/><path class="cls-1" d="M86.26,26.61a6.06,6.06,0,0,1-1.25.85l-1.18-1.59a6.59,6.59,0,0,0,3.17-3l1.92.37a4.79,4.79,0,0,1-.56,1H98.7V26H97.29v2h1.83v1.78H97.29v2H98.7v1.76H84.45V31.75h1.73v-2H84.07V28h2.19Zm1.33,7.81a8.47,8.47,0,0,1-1.94,3.81L84,37a7.65,7.65,0,0,0,1.82-3.14ZM87.91,26v2h1.43V26Zm0,3.75v2h1.43v-2Zm2.51,4.48a21.6,21.6,0,0,1,.26,3.68l-2,0c0-.53.08-1.15.08-2.08,0-.72,0-1.23-.05-1.59ZM91,26v2h1.46V26Zm0,3.75v2h1.46v-2Zm2.67,4.33a16.2,16.2,0,0,1,1.07,3.73l-2,.13a15.43,15.43,0,0,0-.86-3.71ZM94,26v2h1.5V26Zm0,3.75v2h1.5v-2Zm3,4a18.3,18.3,0,0,1,2.18,3.44l-1.82,1a17.93,17.93,0,0,0-2.09-3.64Z"/><path class="cls-1" d="M107.24,33l-.64,1.2a15.63,15.63,0,0,1-1.06-1.68v5.57h-1.82V32.61a12.7,12.7,0,0,1-2.21,3.22l-.7-2.29a12.49,12.49,0,0,0,2.69-3.71h-2.44V28h2.66V23h1.82v5H108v1.81h-2.26a9.93,9.93,0,0,0,1.86,2.54l-.31.56,5.38-1.12V23h2v8.4l1.23-.25.2,1.92-1.43.3v4.71h-2V33.79l-5.14,1.06Zm-4.82-9.25a13.22,13.22,0,0,1,.76,3.17l-1.52.5a11.23,11.23,0,0,0-.69-3.3Zm6,.31a17.1,17.1,0,0,1-1,3.37L106,26.88a13,13,0,0,0,.81-3.19Zm.85,3.6A13.08,13.08,0,0,1,112,29.86l-1.32,1.47a10,10,0,0,0-2.59-2.26Zm.46-4a11.28,11.28,0,0,1,2.76,2.23l-1.3,1.47A12.36,12.36,0,0,0,108.55,25Z"/></g></g></svg>