<svg xmlns="http://www.w3.org/2000/svg" viewBox="0 0 60.08 73.74"><defs><style>.cls-1{fill:#999;}</style></defs><title>header_menu</title><g id="レイヤー_2" data-name="レイヤー 2"><g id="ol"><path class="cls-1" d="M3.52,62.61A32,32,0,0,1,7.94,65.3a23.4,23.4,0,0,0,2.22-5l2.25.69A29.37,29.37,0,0,1,9.65,66.6a35.26,35.26,0,0,1,3.36,3l-1.73,1.84a28.1,28.1,0,0,0-3-3,18.72,18.72,0,0,1-7,5.27L0,72a16.36,16.36,0,0,0,6.67-4.87,32.88,32.88,0,0,0-4.48-2.93Z"/><path class="cls-1" d="M29.32,70.15v2.11H15.91V70.15Zm-1.23-8.42v2.11h-11V61.73Z"/><path class="cls-1" d="M43.93,71.19v1.89H32.52V71.19H39a36.26,36.26,0,0,0,.64-5.44H34V63.86h7.87a63.28,63.28,0,0,1-.75,7.33Z"/><path class="cls-1" d="M60.08,65.88V68.1H46.35V65.88Z"/><path class="cls-1" d="M5.46,4h50a2,2,0,0,0,0-4h-50a2,2,0,0,0,0,4Z"/><path class="cls-1" d="M55.46,23h-50a2,2,0,0,0,0,4h50a2,2,0,1,0,0-4Z"/><path class="cls-1" d="M55.46,46h-50a2,2,0,0,0,0,4h50a2,2,0,1,0,0-4Z"/></g></g></svg>