<svg xmlns="http://www.w3.org/2000/svg" viewBox="0 0 54 76.54"><defs><style>.cls-1{fill:#999;}</style></defs><title>header_btn_close</title><g id="レイヤー_2" data-name="レイヤー 2"><g id="ol"><path class="cls-1" d="M3.66,61.94H9.92v5.5H5.52v9.1H3.66Zm1.86,2.22H8.14v-.84H5.52Zm0,2H8.14v-.88H5.52Zm.06,7.66A10.47,10.47,0,0,0,10,70.65H6V69h5.08V67.83h1.82V69h2.35v1.7H12.93v4.17a1.25,1.25,0,0,1-1.34,1.35H9.26L9,74.38h1.71c.26,0,.39,0,.39-.37V71.67a14.39,14.39,0,0,1-4.53,3.81Zm5.7-11.88h6.34V75.21a1.24,1.24,0,0,1-1.39,1.33H14l-.4-2h1.78c.29,0,.43,0,.43-.41V67.44h-4.5Zm1.79,2.22h2.71v-.84H13.07Zm0,2h2.71v-.88H13.07Z"/><path class="cls-1" d="M23.92,62.29c-.16,3.54-.23,7.52-.23,7.91,0,1.84.16,3.5,2.69,3.5,3.77,0,4.29-2.89,4.68-5l2,.88c-.82,4.18-2.8,6.23-6.66,6.23-4.4,0-4.9-2.72-4.9-5.67,0-1.23.08-6.72.08-7.84Zm3.84,1.06a14,14,0,0,1,2,3l-1.28.85a13.14,13.14,0,0,0-2-3ZM29.91,62A15.59,15.59,0,0,1,32,65l-1.27.88a13.93,13.93,0,0,0-2-3Z"/><path class="cls-1" d="M46.31,64.08c-.86.6-2.56,1.92-3.82,2.92a8,8,0,0,1,2-.32,4.07,4.07,0,0,1,4.37,4.21c0,3.07-2.48,4.93-5.91,4.93-3,0-4.29-1.38-4.29-2.8a2.71,2.71,0,0,1,3-2.5,4.07,4.07,0,0,1,3.86,2.77A2.71,2.71,0,0,0,46.79,71c0-1.47-1-2.54-3.14-2.54-2.48,0-4.3,1.34-6.73,3.64l-1.21-1.79c.66-.48,3.46-2.62,7.13-5.84-1.72.11-3.35.19-5.38.22V62.58c3.5,0,5.06,0,8.85-.16ZM41.6,72.17c-.65,0-1.05.41-1.05.75,0,.75.89,1.23,2.24,1.23a4.44,4.44,0,0,0,1-.11A2.32,2.32,0,0,0,41.6,72.17Z"/><path class="cls-1" d="M29.83,27,53.41,3.41a2,2,0,0,0,0-2.82,2,2,0,0,0-2.82,0L27,24.17,3.41.59A2,2,0,0,0,.59.59a2,2,0,0,0,0,2.82L24.17,27,.59,50.59a2,2,0,0,0,0,2.82,2,2,0,0,0,2.82,0L27,29.83,50.59,53.41a2,2,0,0,0,2.82-2.82Z"/></g></g></svg>