<svg xmlns="http://www.w3.org/2000/svg" viewBox="0 0 300 67.01"><title>header_logo</title><g id="レイヤー_2" data-name="レイヤー 2"><g id="ol"><path d="M14.45,26.82l-2.58,8.51H0L12.71.36h15.4l13.54,35H29.12l-3-8.51H14.45m10-7.16-2.14-6.18c-.72-2-1.55-4.51-2.27-6.54h-.13c-.65,2-1.25,4.57-1.9,6.6l-1.91,6.12Z"/><rect x="44.14" width="10.18" height="35.33"/><path d="M59.08,18.67c0-3.63-.11-6.58-.21-8.88h9l.24,3.38h.11c2.31-2.75,5.6-4,9.58-4,5.28,0,11.73,4.05,11.73,13,0,9.5-7,13.81-13.13,13.81-3.34,0-5.92-1.09-7-2.49h-.11V45.72H59.08v-27m14.49,10c3.17,0,5.26-2.18,5.26-5.92,0-3.27-1.6-6.07-5.16-6.07h0c-3.55,0-5.18,2.8-5.18,6.07,0,3.74,2.11,5.92,5.3,5.92Z"/><path d="M101.92,25.84c.38,1.91,3,3.65,7.1,3.65a24.78,24.78,0,0,0,8.78-1.71v6.29a26,26,0,0,1-10,1.89c-9.91,0-15.5-5.14-15.5-13.24,0-5,3.6-13.55,14.53-13.55,9.5,0,13.11,6.8,13.11,13.3a14.55,14.55,0,0,1-.39,3.37H101.92m9.08-6c0-2.57-1.42-4.4-4.67-4.4s-4.36,2.39-4.57,4.4Z"/><path d="M123.7,18.67c0-3.63-.1-6.58-.21-8.88h9l.25,3.38h.22a10.21,10.21,0,0,1,8.4-4c6.35,0,10.28,3.95,10.28,11.43V35.33H141.42V22.05c0-3.33-1.25-5.09-3.77-5.09a3.7,3.7,0,0,0-3.55,2.49,4.38,4.38,0,0,0-.22,1.72V35.33H123.7Z"/><path d="M191.68,33.57a38.28,38.28,0,0,1-12.45,2.12c-6.13,0-11.08-1.48-14.88-4.95a16.73,16.73,0,0,1-5.16-12.48C159.19,9,166.54.54,180.31.54a26.77,26.77,0,0,1,10.12,1.78V6.51a22.73,22.73,0,0,0-10.29-2.17c-10,0-15.92,5.79-15.92,13.73,0,8.1,5.8,13.85,15.44,13.85,3.54,0,6-.47,7.29-1.11V19.93h-8V16.27h12.78Z"/><path d="M196.86,18.76c0-3.2-.05-5.69-.21-8.14h4.21L201,15.8h.17c1.42-3.92,4.33-5.79,7.67-5.79a13.29,13.29,0,0,1,3.26.45v4.29a15.27,15.27,0,0,0-3.65-.45c-3.49,0-5.92,2.41-6.62,5.95a10.3,10.3,0,0,0-.2,2v13h-4.8Z"/><path d="M226.94,32.5c-4.75,0-8.77-3.59-8.77-9.45,0-5,2.92-9.6,9-9.6s8.79,5.11,8.79,9.42c0,6.19-4.18,9.63-8.94,9.63Zm0,3.44c6.81,0,14-4.26,14-13.27,0-7.17-5.36-12.66-13.61-12.66-7.92,0-14,5.19-14,13.21,0,7.56,5.87,12.72,13.56,12.72Z"/><path d="M268,28.56c0,2.55.06,4.78.21,6.77H264l-.23-4.52h-.14a10.43,10.43,0,0,1-9.24,5.13c-4.12,0-8.22-1.77-9.41-7.47a27,27,0,0,1-.38-5.17V10.62h4.79V23.76a17.78,17.78,0,0,0,.34,3.54,5.74,5.74,0,0,0,6,4.8,7.52,7.52,0,0,0,7-4.31,7.65,7.65,0,0,0,.56-2.61V10.62H268Z"/><path d="M273.32,45.55h4.8V31.71h.1c1.79,2.81,5.24,4.23,9,4.23,6.62,0,12.8-4.63,12.8-13.44C300,15.21,294.79,10,288.05,10c-4.85,0-8.24,2.05-10.25,5.18h-.11l-.27-4.57h-4.31c.14,2.54.21,5.24.21,8.17ZM278,23.16a14.71,14.71,0,0,1,.49-3.61,8.28,8.28,0,0,1,8.1-5.9c5.46,0,8.58,4.23,8.58,9.09,0,5.89-3.41,9.61-8.83,9.61a8.15,8.15,0,0,1-7.92-5.68A12.24,12.24,0,0,1,278,23.16Z"/><path d="M88.21,53c-.54,4.07-2.3,5.72-4.83,7.14L81.9,58.56c2.55-1.17,3.2-2.3,3.62-3.52H74.73V53ZM74.84,64.44c4.45-1.76,4.92-4.82,4.9-8l2.21,0c-.08,3.71-.67,7.38-5.7,9.75Z"/><path d="M93.8,56.82c0,6-1.63,8.11-2.92,9.38l-1.62-1.62c1.49-1.6,2.43-3.22,2.43-7.59V53.1H93.8Zm4.28,6.42c1.6-.71,3.22-1.41,3.94-5.59l2,.86c-.65,2.89-2.09,7.06-8.08,7.38V52.69h2.13Z"/><path d="M105.88,60.13c.61-.7,3.16-3.84,3.68-4.46.84-1,1.4-1.2,2.07-1.2s1.31.22,2.4,1.39L120.79,63l-1.69,2-6.59-7.36a1.6,1.6,0,0,0-.94-.61c-.32,0-.58.32-.89.72-.52.69-2.72,3.71-3.18,4.32Zm14.52-5.66a2.32,2.32,0,1,1-2.3-2.31A2.31,2.31,0,0,1,120.4,54.47Zm-3.52,0a1.22,1.22,0,1,0,1.22-1.22A1.21,1.21,0,0,0,116.88,54.47Z"/><path d="M128,57.54a19.15,19.15,0,0,0-5-2.39l1-1.84a21.63,21.63,0,0,1,5.13,2.26Zm-4.66,6c4.76-.38,9.21-2,11.26-9.47l1.87,1.31c-1.91,5.9-5.2,9.67-12.65,10.48Z"/><path d="M142.36,58.07a16.63,16.63,0,0,1-3.75,2l-.52-2a13.89,13.89,0,0,0,3.73-1.78Zm2.5,1.5h-2.32V52.75h1.92a4.53,4.53,0,0,0,.36-1H147a8.67,8.67,0,0,1-.39,1h2.61v6.82h-2.4v.79h6.53v1.82h-5a19.31,19.31,0,0,0,5.17,2.43l-1.12,1.92a19.25,19.25,0,0,1-5.63-3.63v3.91h-1.95V63.08a19.53,19.53,0,0,1-5.7,3.49l-1-2a16.53,16.53,0,0,0,5.3-2.42h-5.1V60.36h6.53Zm-5.45-7.23a13,13,0,0,1,2.89,1.9l-1.14,1.62a11.33,11.33,0,0,0-2.79-2Zm4.93,2v1.13h3V54.31Zm0,2.46V58h3V56.77Zm6-.74a15.28,15.28,0,0,1,3.41,2.23l-1.25,1.81a12.12,12.12,0,0,0-3.22-2.37Zm3.06-2.49A16.13,16.13,0,0,1,150.78,56l-1.28-1.45A13.72,13.72,0,0,0,152,52.22Z"/><path d="M162.65,57.47a12,12,0,0,0,0-1.28v-2h-6.4V52.24h15v1.91h-6.56v2c0,.56,0,.75-.05,1.29h6.16v1.91H165.2c.83,2.66,3.47,4.38,6.35,5.39l-1.18,2c-3.24-1.41-5.56-3.57-6.5-6a11.94,11.94,0,0,1-6.61,6l-1.2-2.07c2.91-.83,5.3-2.4,6.23-5.39h-5.51V57.47Z"/><path d="M189.09,55.27h-6.56V56.8h5.33V64c0,1.45-1,1.69-1.44,1.69H184l-.37-2.06h1.89c.35,0,.37-.14.37-.43V58.72h-3.35v8.13h-2V58.72h-3.22V65.8h-2v-9h5.23V55.27H174v-2h6.48V51.78h2v1.53h6.56Z"/><path d="M198.5,61.91a8.1,8.1,0,0,1-2.11,1.29l-.27-.43a41.63,41.63,0,0,1-4.34,1.62l-.21-2.08c.48-.11.91-.21,1.63-.43V57h-1.44v-1.9h1.44V51.79h1.91v3.35h1V57h-1v4.21a8.64,8.64,0,0,0,1-.43l.05.75a6,6,0,0,0,2.42-1.92h-2.48v-1.5h10.77v1.5h-6.48c-.2.31-.29.48-.5.77h6.58c0,.1-.06,4.45-.51,5.47a1.42,1.42,0,0,1-1.54.93h-2.3l-.29-1.74h1.9c.51,0,.58-.27.64-.64.11-.55.19-2,.21-2.53H204A9.38,9.38,0,0,1,198.9,67l-1.15-1.32a8.88,8.88,0,0,0,4.58-3.78h-1a9.36,9.36,0,0,1-5.44,3.78l-.74-1.4a9.29,9.29,0,0,0,4.36-2.38Zm-1.63-9.65h9.07v5.2h-9.07Zm1.85,1.29v.85h5.35v-.85Zm0,1.86v.86h5.35v-.86Z"/><path d="M224.35,54.93H212.52v4.83c0,1.75-.35,5.33-1.73,7.05l-1.54-1.56a10.86,10.86,0,0,0,1.28-5.5V53.06h5.62V51.7h2.07v1.36h6.13ZM216.81,60V55.31h1.93V56.5h5.62v1.85h-5.62V60h4.69v6.45H213.09V60Zm4.65,1.79h-6.41v2.8h6.41Z"/></g></g></svg>