<svg xmlns="http://www.w3.org/2000/svg" viewBox="0 0 54 76.62"><defs><style>.cls-1{fill:#999;}</style></defs><title>header_search</title><g id="レイヤー_2" data-name="レイヤー 2"><g id="ol"><path class="cls-1" d="M23.62,66.31h-2V67.4H25.1v4.8H22.19c.26.57.75,1.6,3.67,2.54L25,76.57a7.13,7.13,0,0,1-4.3-3.38,7.22,7.22,0,0,1-4.34,3.43l-1-1.76c1.78-.6,3.17-1.32,3.83-2.66H16.29V69.61l-.87,1.74a7.42,7.42,0,0,1-1.07-1.73v6.92H12.49V70.26a10.7,10.7,0,0,1-1.57,3.3L10.2,71a12.84,12.84,0,0,0,2.18-4.87H10.49V64.28h2V61.46h1.86v2.82h1.21v.49a9.61,9.61,0,0,0,4-3.31h2.25A9.93,9.93,0,0,0,26,64.82L25,66.55a14.28,14.28,0,0,1-1.4-.88Zm-5.7-.66a7.87,7.87,0,0,1-1.57,1L15.56,65v1.17H14.35v.72a10.65,10.65,0,0,0,1.94,2.56v-2h3.47V66.31H17.92Zm1.74,4.95a10.18,10.18,0,0,0,.1-1.6H18.05v1.6Zm2.74-5.91a11.31,11.31,0,0,1-1.65-1.77,14.81,14.81,0,0,1-1.68,1.77Zm.93,5.91V69H21.62a12.54,12.54,0,0,1-.08,1.6Z"/><path class="cls-1" d="M27.62,70.63l.71,0,4.46,0,.1-.08a17.16,17.16,0,0,0-3-1.81l1.23-1.44c.25.13.38.21.83.48a8.92,8.92,0,0,0,.87-1.07H29.86v1.65h-2V65.11h6.25V64.2H28.25V62.44h5.89v-1h2v1H42V64.2H36.15v.91H42.4v3.25h-2V66.71H35.18a10.47,10.47,0,0,1-1.81,2l.88.61a22.67,22.67,0,0,0,2.46-2.6l1.68,1a20.45,20.45,0,0,1-2.94,2.85l3-.11c-.35-.29-.56-.45-.94-.72L39,68.45a21.64,21.64,0,0,1,3.69,3.36l-1.43,1.46A8.68,8.68,0,0,0,40.15,72l-4,.23v4.33h-2V72.33c-.93,0-5.41.16-6.44.14Zm5.27,2.91a12.39,12.39,0,0,1-4.12,3l-1.13-1.68a11.34,11.34,0,0,0,3.69-2.41Zm8.74,2.92a11.6,11.6,0,0,1-4.45-3l1.39-1.15a10.82,10.82,0,0,0,4.19,2.41Z"/><path class="cls-1" d="M53.41,50.59,38.9,36.07a22,22,0,1,0-2.83,2.83L50.59,53.41a2,2,0,0,0,2.82-2.82ZM22,40A18,18,0,1,1,40,22,18,18,0,0,1,22,40Z"/></g></g></svg>